<svg xmlns="http://www.w3.org/2000/svg" width="682.667" height="682.667" version="1" viewBox="0 0 512 512"><path d="M264.6 254.3c.1 138.7.2 252.6.3 253.1.1.9 2.8-1.9 35.4-35.8 9.5-9.8 21.2-22 26-27 4.9-5 14.1-14.5 20.4-21.1 10.9-11.3 47.1-48.8 61.3-63.5 18.1-18.8 50.3-52.1 56-58 3.6-3.8 15.1-15.6 25.5-26.5 10.5-10.8 19.1-20 19.3-20.4.3-.8-4.5-5.9-33.7-36.1-11.5-11.8-23.5-24.2-26.7-27.6-3.3-3.4-6.8-6.5-7.9-7-1.2-.6-23.5-.9-53-.9l-51 .1v100.9h22v-20.7c0-11.3.3-20.9.7-21.3.8-.8 20.6-1 21.5-.2.8.9.8 62.5 0 63.3-.5.5-60.5.9-66.3.5-1.7-.1-1.7-150.1-.1-150.2 7.4-.5 24-.2 24.4.4.2.4.9.4 1.5.1.6-.4 17.3-.7 37-.7s35.8-.3 35.6-.7c-.3-.7-14.4-15.5-46.5-48.7-14.4-14.9-47.1-48.8-54.4-56.4-3.5-3.6-13.8-14.4-22.9-23.9-17.5-18.3-23.2-24-24-24-.3 0-.4 113.5-.4 252.3zM244.4 4.5c-.4.8-1.2 1.5-2 1.5s-1.4.4-1.4.8-4.4 5.3-9.7 10.9c-11.6 12-47.1 48.7-57.2 59.2l-7.1 7.3v238.7l-13.2-.2-13.3-.2-.1-78c-.1-42.9-.2-78.4-.3-78.9 0-.4-1.2-.6-2.6-.4-1.4.3-2.5.1-2.5-.4s-.5-.6-1-.3c-.6.4-.8 1.2-.4 1.8.3.7-.2.3-1-.7-.9-1.1-1.6-1.5-1.6-.9 0 .7-2.3 1-7 .7-4.6-.3-7-.1-7 .6 0 .6-.5.8-1 .5-.6-.4-.7-1.2-.3-1.8.5-.9.3-.9-.8-.1-.8.6-4.1 1-7.6.8-4-.3-6.3 0-6.3.7 0 .5-.5.7-1 .4-.6-.4-.7-1.2-.4-1.8.5-.9.4-.9-.5-.1-.7.6-3 .9-5.3.7-2.8-.4-3.8-.2-3.4.6.4.6.1.9-.7.5-.9-.3-3.5 1.7-6.8 5.1-3 3.1-9.9 10.2-15.4 15.9-13.6 14-46.5 48.2-56.5 58.5l-8 8.5 5.9 6c13.2 13.6 28.4 29.2 42.3 43.8 8.1 8.4 19.1 19.8 24.5 25.4 5.4 5.5 18.6 19.2 29.3 30.4 10.7 11.1 22.9 23.7 27 28 4.1 4.2 16.3 16.8 27 28 10.7 11.1 23.1 24 27.5 28.5 4.4 4.5 16.1 16.6 26 26.9 22.1 23 33.4 34.6 33.8 34.6.1 0 .2-113.2.2-251.5S246.2 3 245.7 3c-.4 0-1 .7-1.3 1.5z"/></svg>