<svg xmlns="http://www.w3.org/2000/svg" viewBox="0 0 256 256"><path fill="#FB0" d="M-1624.032-31.388V-54.81l-48.88 31.22 10.83 16.815 18.05-11.675V98.288h20z"/><path fill="#7CBB00" d="M-1526.399-61.795l-11.097-23.797-42.742 91.94-42.873 91.94h171.36l-74.648-160.083zm-35.713 76.595l24.682-52.927 54.405 116.672h-108.812l29.725-63.745z"/><path fill="#F65314" d="M-1354.669 80.545v17.743h-95.651l68.976-88.877s.022-.028.068-.08a27.491 27.491 0 006.385-17.657c0-15.245-12.359-27.604-27.604-27.604-15.244 0-27.603 12.359-27.603 27.604h-20.222c0-26.414 21.412-47.826 47.825-47.826 26.414 0 47.826 21.412 47.826 47.826a47.634 47.634 0 01-11.24 30.804c-9.38 12.107-42.171 54.451-42.171 54.451h53.411v3.616z"/><path fill="#00A1F1" d="M-1238.066 34.427c-4.505-19.052-18.352-33.07-44.574-35.899 15.789-18.976 45.26-54.403 45.26-54.403h-98.352v20h57.303l-46.15 55.536c8.77-3.992 26-4.351 31.31-4.226 22.386.527 36.254 15.084 35.643 33.225-.614 18.242-17.481 33.049-39.045 33.049-16.525 0-30.652-8.689-36.353-20.963l-18.29 9.126c8.891 19.542 30.283 33.314 55.26 33.314 32.951 0 59.663-23.968 59.663-53.534 0-5.328-.543-10.436-1.675-15.225z"/><path fill="#FBBC05" d="M-1624.032 163.008v-23.423l-48.88 31.22 10.83 16.815 18.05-11.675v116.739h20z"/><path fill="#34A853" d="M-1526.399 132.601l-11.097-23.798-42.742 91.94-42.873 91.94h171.36l-74.648-160.082zm-35.713 76.595l24.682-52.927 54.405 116.672h-108.812l29.725-63.745z"/><path fill="#EA4335" d="M-1354.669 274.941v17.743h-95.651l68.976-88.877s.022-.028.068-.08a27.491 27.491 0 006.385-17.657c0-15.245-12.359-27.604-27.604-27.604-15.244 0-27.603 12.359-27.603 27.604h-20.222c0-26.414 21.412-47.826 47.825-47.826 26.414 0 47.826 21.412 47.826 47.826a47.634 47.634 0 01-11.24 30.804c-9.38 12.107-42.171 54.451-42.171 54.451h53.411v3.616z"/><path fill="#4285F4" d="M-1238.066 228.823c-4.505-19.053-18.352-33.07-44.574-35.899 15.789-18.976 45.26-54.403 45.26-54.403h-98.352v20h57.303l-46.15 55.536c8.77-3.992 26-4.352 31.31-4.226 22.386.527 36.254 15.084 35.643 33.225-.614 18.242-17.481 33.048-39.045 33.048-16.525 0-30.652-8.688-36.353-20.963l-18.29 9.127c8.891 19.542 30.283 33.314 55.26 33.314 32.951 0 59.663-23.968 59.663-53.535 0-5.327-.543-10.435-1.675-15.224z"/><path fill="#FBA026" d="M-1624.032 359.407v-23.423l-48.88 31.22 10.83 16.815 18.05-11.675v116.738h20z"/><path fill="#41A85F" d="M-1526.399 329l-11.097-23.798-42.742 91.94-42.873 91.94h171.36L-1526.399 329zm-35.713 76.595l24.682-52.927 54.405 116.672h-108.812l29.725-63.745z"/><path fill="#E25041" d="M-1354.669 471.34v17.743h-95.651l68.976-88.877s.022-.028.068-.081a27.491 27.491 0 006.385-17.657c0-15.245-12.359-27.603-27.604-27.603-15.244 0-27.603 12.358-27.603 27.603h-20.222c0-26.413 21.412-47.825 47.825-47.825 26.414 0 47.826 21.412 47.826 47.825a47.634 47.634 0 01-11.24 30.805c-9.38 12.107-42.171 54.451-42.171 54.451h53.411v3.616z"/><path fill="#2C82C9" d="M-1238.066 425.221c-4.505-19.052-18.352-33.069-44.574-35.898 15.789-18.976 45.26-54.403 45.26-54.403h-98.352v20h57.303l-46.15 55.536c8.77-3.992 26-4.352 31.31-4.227 22.386.528 36.254 15.085 35.643 33.226-.614 18.242-17.481 33.048-39.045 33.048-16.525 0-30.652-8.688-36.353-20.963l-18.29 9.126c8.891 19.543 30.283 33.315 55.26 33.315 32.951 0 59.663-23.969 59.663-53.535 0-5.328-.543-10.435-1.675-15.225z"/><path fill="#F37934" d="M-1136.973-30.238v-23.423l-48.88 31.22 10.83 16.815 18.05-11.675V99.436h20z"/><path fill="#338247" d="M-1039.34-60.645l-11.097-23.798-42.743 91.94-42.872 91.94h171.36l-74.648-160.082zm-35.714 76.595l24.683-52.927 54.405 116.672h-108.813l29.725-63.745z"/><path fill="#B8312F" d="M-867.61 81.695v17.742h-95.652l68.977-88.876s.022-.029.068-.081a27.491 27.491 0 006.384-17.657c0-15.245-12.358-27.603-27.603-27.603-15.245 0-27.604 12.358-27.604 27.603h-20.222c0-26.413 21.412-47.826 47.826-47.826 26.413 0 47.825 21.413 47.825 47.826a47.634 47.634 0 01-11.24 30.805c-9.38 12.107-42.17 54.45-42.17 54.45h53.41v3.617z"/><path fill="#2969B0" d="M-751.007 35.576c-4.506-19.052-18.353-33.07-44.574-35.898 15.788-18.976 45.259-54.403 45.259-54.403h-98.351v20h57.303l-46.15 55.536c8.77-3.992 26-4.352 31.31-4.227 22.386.528 36.254 15.085 35.643 33.226-.615 18.242-17.481 33.048-39.046 33.048-16.524 0-30.652-8.688-36.352-20.963l-18.29 9.126c8.891 19.543 30.283 33.315 55.26 33.315 32.95 0 59.662-23.969 59.662-53.535 0-5.328-.542-10.435-1.674-15.225z"/><path fill="#F7DA64" d="M-1136.973 164.157v-23.422l-48.88 31.22 10.83 16.815 18.05-11.676v116.74h20z"/><path fill="#61BD6D" d="M-1039.34 133.75l-11.097-23.797-42.743 91.94-42.872 91.94h171.36l-74.648-160.082zm-35.714 76.595l24.683-52.926 54.405 116.672h-108.813l29.725-63.746z"/><path fill="#EB6B56" d="M-867.61 276.09v17.743h-95.652l68.977-88.877s.022-.028.068-.08a27.491 27.491 0 006.384-17.657c0-15.245-12.358-27.603-27.603-27.603-15.245 0-27.604 12.358-27.604 27.603h-20.222c0-26.413 21.412-47.826 47.826-47.826 26.413 0 47.825 21.413 47.825 47.826a47.634 47.634 0 01-11.24 30.805c-9.38 12.107-42.17 54.45-42.17 54.45h53.41v3.617z"/><path fill="#54ACD2" d="M-751.007 229.972c-4.506-19.052-18.353-33.07-44.574-35.898l45.259-54.403h-98.351v20h57.303l-46.15 55.535c8.77-3.991 26-4.351 31.31-4.226 22.386.528 36.254 15.085 35.643 33.226-.615 18.242-17.481 33.048-39.046 33.048-16.524 0-30.652-8.689-36.352-20.963l-18.29 9.126c8.891 19.543 30.283 33.314 55.26 33.314 32.95 0 59.662-23.968 59.662-53.534 0-5.328-.542-10.435-1.674-15.225z"/><path fill="#F39C12" d="M-1136.973 360.556v-23.422l-48.88 31.22 10.83 16.815 18.05-11.676v116.74h20z"/><path fill="#34A853" d="M-1039.34 330.15l-11.097-23.798-42.743 91.94-42.872 91.94h171.36l-74.648-160.083zm-35.714 76.594l24.683-52.927 54.405 116.672h-108.813l29.725-63.745z"/><path fill="#E74C3C" d="M-867.61 472.49v17.742h-95.652l68.977-88.877s.022-.028.068-.08a27.491 27.491 0 006.384-17.657c0-15.245-12.358-27.604-27.603-27.604-15.245 0-27.604 12.359-27.604 27.604h-20.222c0-26.414 21.412-47.826 47.826-47.826 26.413 0 47.825 21.413 47.825 47.826a47.634 47.634 0 01-11.24 30.804c-9.38 12.108-42.17 54.452-42.17 54.452h53.41v3.615z"/><path fill="#3498DB" d="M-751.007 426.371c-4.506-19.052-18.353-33.07-44.574-35.898l45.259-54.403h-98.351v20h57.303l-46.15 55.535c8.77-3.992 26-4.351 31.31-4.226 22.386.527 36.254 15.084 35.643 33.226-.615 18.241-17.481 33.048-39.045 33.048-16.525 0-30.652-8.689-36.353-20.963l-18.29 9.126c8.891 19.543 30.283 33.314 55.26 33.314 32.95 0 59.662-23.968 59.662-53.534 0-5.328-.542-10.436-1.674-15.225z"/><path d="M-1670.823-79.656l3.288 7.596 3.3-7.596 1.836 9.564h-1.032l-1.164-6.12h-.024l-2.916 6.492-2.904-6.492h-.024l-1.164 6.12h-1.032l1.836-9.564zM-1660.587-78.54c.184 0 .344.068.48.204a.657.657 0 01.204.48.65.65 0 01-.204.486c-.136.132-.296.198-.48.198s-.344-.066-.48-.198a.652.652 0 01-.204-.486c0-.184.068-.344.204-.48a.658.658 0 01.48-.204zm.48 8.448h-.96v-5.64h.96v5.64zM-1653.915-74.052h-.024a3.05 3.05 0 00-.756-.684 1.833 1.833 0 00-.996-.264c-.288 0-.554.056-.798.167a1.948 1.948 0 00-.63.457 2.15 2.15 0 00-.564 1.464c0 .28.046.546.138.798.092.252.222.474.39.666a1.83 1.83 0 001.416.624c.408 0 .758-.086 1.05-.258.292-.172.554-.41.786-.714h.024v1.284c-.28.184-.564.326-.852.426-.288.1-.6.15-.936.15-.424 0-.82-.076-1.188-.228a2.842 2.842 0 01-1.584-1.566 3.03 3.03 0 01-.228-1.182c0-.416.08-.806.24-1.17a2.976 2.976 0 011.602-1.578 3.006 3.006 0 012.076-.084c.3.096.578.236.834.42v1.272zM-1651.479-75.12h.024c.168-.224.34-.408.516-.552.176-.144.42-.216.732-.216.16 0 .31.024.45.072.14.048.277.112.414.192l-.456.876a34.392 34.392 0 00-.264-.174.567.567 0 00-.312-.078c-.264 0-.47.074-.618.222s-.259.33-.33.546a2.724 2.724 0 00-.132.684c-.016.24-.024.452-.024.636v2.82h-.96v-5.64h.96v.612zM-1645.911-69.936a2.933 2.933 0 01-2.094-.858 3 3 0 01-.636-.942 2.892 2.892 0 01-.234-1.164 2.96 2.96 0 01.858-2.112c.268-.272.582-.486.942-.642.36-.156.748-.234 1.164-.234s.804.078 1.164.234a2.966 2.966 0 011.8 2.754 2.9 2.9 0 01-.234 1.164c-.156.36-.368.674-.636.942a2.928 2.928 0 01-2.094.858zm0-5.064a1.96 1.96 0 00-1.86 1.278 2.252 2.252 0 00-.144.81c0 .288.048.558.144.81.096.252.232.474.408.666.176.192.388.342.636.45.248.108.52.162.816.162s.568-.054.816-.162.46-.258.636-.45.312-.414.408-.666c.096-.252.144-.522.144-.81 0-.288-.048-.558-.144-.81a1.99 1.99 0 00-.408-.66 1.98 1.98 0 00-1.452-.618zM-1639.348-74.424a1.074 1.074 0 00-.3-.402.7.7 0 00-.468-.175.753.753 0 00-.473.175.545.545 0 00-.222.45c0 .128.038.238.113.33.077.092.175.176.295.252.12.076.258.144.413.204.157.06.319.126.487.198.168.072.33.152.486.24.156.088.293.194.414.318.12.124.217.272.294.444s.114.378.114.617c0 .265-.05.51-.15.739s-.238.422-.415.582c-.176.16-.378.286-.606.378s-.473.137-.738.137c-.48 0-.894-.126-1.242-.378a2.08 2.08 0 01-.75-1.05l.852-.36c.12.264.263.48.427.649.163.168.406.252.726.252.256 0 .472-.08.648-.24a.804.804 0 00.263-.625c0-.207-.062-.376-.186-.503s-.281-.24-.473-.336a7.176 7.176 0 00-.612-.27c-.216-.084-.42-.188-.612-.312s-.35-.278-.474-.462-.186-.424-.186-.72c0-.24.044-.458.132-.654.088-.196.21-.364.366-.504s.334-.248.534-.324c.2-.076.415-.114.648-.114.327 0 .628.1.9.3.272.2.472.448.6.744l-.805.42zM-1634.38-69.936a2.933 2.933 0 01-2.094-.858 3 3 0 01-.635-.942 2.892 2.892 0 01-.234-1.164 2.96 2.96 0 01.858-2.112c.268-.272.582-.486.942-.642.36-.156.748-.234 1.164-.234s.803.078 1.164.234a2.966 2.966 0 011.8 2.754 2.9 2.9 0 01-.234 1.164c-.157.36-.369.674-.637.942a2.928 2.928 0 01-2.093.858zm0-5.064a1.96 1.96 0 00-1.86 1.278 2.252 2.252 0 00-.143.81c0 .288.048.558.144.81.096.252.232.474.408.666.175.192.388.342.636.45.247.108.52.162.816.162s.568-.054.816-.162.46-.258.636-.45.312-.414.407-.666c.097-.252.144-.522.144-.81 0-.288-.047-.558-.144-.81a1.99 1.99 0 00-.407-.66 1.98 1.98 0 00-1.452-.618zM-1629.052-70.092h-.96v-4.752h-.528v-.888h.528v-2.244c0-.232.01-.482.03-.75s.094-.506.222-.715c.16-.255.37-.438.63-.545a2.141 2.141 0 011.164-.132c.116.02.23.05.342.09v.972c-.112-.04-.218-.073-.318-.096s-.21-.037-.33-.037c-.192 0-.342.035-.45.102a.577.577 0 00-.234.3 1.644 1.644 0 00-.084.487 16.46 16.46 0 00-.012.66v1.907h1.428v.889h-1.428v4.752zM-1625.8-70.092h-.96v-4.752h-.588v-.888h.588v-2.028h.96v2.028h1.009v.888h-1.009v4.752z"/><g><path d="M-1670.991 316.197v2.687h3.012v.937h-3.012v4.487H-1672v-9.048h4.116v.937h-3.108zM-1665.327 324.308h-.96v-9.9h.96v9.9zM-1658.391 324.308h-.96v-.78h-.024c-.496.625-1.144.936-1.944.936-.416 0-.79-.082-1.122-.246s-.616-.382-.852-.654a2.837 2.837 0 01-.54-.941 3.378 3.378 0 01-.186-1.123c0-.4.062-.782.186-1.146.124-.363.302-.682.534-.954.232-.272.516-.487.852-.648s.716-.24 1.14-.24c.384 0 .744.084 1.08.252s.62.404.852.708h.024v-.804h.96v5.64zm-2.808-4.908c-.28 0-.532.057-.756.168a1.826 1.826 0 00-.576.45c-.16.189-.284.404-.372.649s-.132.498-.132.761c0 .28.04.548.12.804.08.257.198.484.354.684.156.2.348.36.576.48s.494.18.798.18c.312 0 .583-.058.816-.173.232-.116.428-.273.588-.469.16-.195.28-.422.36-.678s.12-.528.12-.816c0-.28-.044-.544-.132-.792a2.006 2.006 0 00-.372-.648 1.744 1.744 0 00-.594-.438 1.905 1.905 0 00-.798-.162zM-1655.607 324.308h-.96v-4.752h-.588v-.888h.588v-2.028h.96v2.028h1.008v.888h-1.008v4.752zM-1649.055 320.648v.517c0 .177.012.351.036.527.024.177.064.347.12.51.055.165.135.318.24.463.2.28.47.494.81.641.34.149.677.223 1.014.223.327 0 .654-.07.978-.211.323-.14.59-.337.798-.594.12-.143.21-.3.27-.468s.104-.341.131-.522c.028-.18.042-.361.042-.546v-5.928h1.009v5.664c0 .248-.009.483-.025.702s-.05.434-.102.642a2.419 2.419 0 01-.24.6c-.107.192-.25.38-.426.564a3.104 3.104 0 01-1.11.769c-.427.175-.87.263-1.325.263a3.54 3.54 0 01-1.267-.234 2.998 2.998 0 01-1.074-.69 2.8 2.8 0 01-.474-.582c-.116-.196-.203-.402-.264-.618s-.1-.442-.12-.677a8.761 8.761 0 01-.03-.739v-5.664h1.008v5.388zM-1640.787 324.308h-1.008v-9.048h1.008v9.048zM-1633.684 320.972v.888h-2.46v-.888h2.46zM-1629.003 314.877l7.055 7.391v-7.008h1.009v9.456l-7.057-7.38v6.972h-1.007v-9.431zM-1616.596 324.464a2.942 2.942 0 01-2.73-1.8c-.156-.36-.234-.747-.234-1.163s.076-.804.228-1.165a2.973 2.973 0 011.572-1.59c.36-.156.748-.234 1.164-.234s.804.078 1.164.235a2.973 2.973 0 011.8 2.753 2.9 2.9 0 01-.234 1.165c-.156.359-.368.673-.636.941a2.93 2.93 0 01-2.094.858zm0-5.064a1.967 1.967 0 00-1.452.618 1.996 1.996 0 00-.407.66 2.254 2.254 0 00-.144.81c0 .288.047.558.144.81.095.252.231.474.407.666s.388.342.636.45c.248.108.52.163.816.163s.568-.055.816-.162a1.86 1.86 0 00.636-.45c.176-.193.312-.415.408-.667.096-.252.144-.522.144-.81 0-.287-.048-.558-.144-.81a1.996 1.996 0 00-.408-.66 1.97 1.97 0 00-1.452-.618zM-1611.4 319.28h.025c.168-.224.34-.407.515-.552.176-.144.42-.216.733-.216.16 0 .31.025.45.073s.277.112.413.191l-.456.877c-.095-.065-.184-.122-.263-.175a.567.567 0 00-.312-.078c-.265 0-.47.074-.619.223-.148.147-.258.33-.33.546s-.116.444-.132.683c-.016.24-.023.452-.023.637v2.82h-.96v-5.64h.96v.612zM-1607.236 319.28h.024c.152-.232.344-.417.576-.558.232-.14.492-.21.78-.21.336 0 .642.082.918.246s.49.395.642.69c.168-.312.406-.545.714-.701s.634-.235.978-.235c.36 0 .656.069.888.204.232.136.416.315.552.535.136.22.23.471.282.755.052.285.079.575.079.87v3.432h-.96v-3.275c0-.185-.009-.372-.025-.565s-.058-.368-.126-.528a.929.929 0 00-.306-.39c-.136-.1-.328-.15-.576-.15-.28 0-.5.06-.66.18s-.282.274-.366.463a2.027 2.027 0 00-.162.618 6.207 6.207 0 00-.036.66v2.987h-.96v-3.204c0-.176-.01-.363-.03-.563-.02-.2-.064-.384-.132-.552s-.168-.309-.3-.421c-.132-.111-.314-.168-.546-.168-.28 0-.504.064-.672.192-.168.128-.294.29-.378.487s-.138.41-.162.641a6.43 6.43 0 00-.036.672v2.916h-.96v-5.64h.96v.613zM-1593.832 324.308h-.96v-.78h-.024c-.496.625-1.144.936-1.944.936-.416 0-.79-.082-1.122-.246s-.616-.382-.852-.654a2.837 2.837 0 01-.54-.941 3.378 3.378 0 01-.186-1.123c0-.4.062-.782.186-1.146.124-.363.302-.682.534-.954.232-.272.516-.487.852-.648s.716-.24 1.14-.24c.384 0 .744.084 1.08.252s.62.404.852.708h.024v-.804h.96v5.64zm-2.808-4.908c-.28 0-.532.057-.756.168a1.826 1.826 0 00-.576.45c-.16.189-.284.404-.372.649s-.132.498-.132.761c0 .28.04.548.12.804.08.257.198.484.354.684.156.2.348.36.576.48s.494.18.798.18c.312 0 .584-.058.816-.173.232-.116.428-.273.588-.469.16-.195.28-.422.36-.678s.12-.528.12-.816c0-.28-.044-.544-.132-.792a2.006 2.006 0 00-.372-.648 1.744 1.744 0 00-.594-.438 1.905 1.905 0 00-.798-.162zM-1591.12 324.308h-.96v-9.9h.96v9.9z"/></g><g><path d="M-1663.587 121.581c.008.304.002.596-.018.876-.02.28-.064.552-.132.816s-.164.52-.288.768c-.124.248-.29.492-.498.732-.416.48-.92.852-1.512 1.116a4.46 4.46 0 01-1.836.396c-.64 0-1.242-.124-1.806-.372a4.8 4.8 0 01-1.476-1.002c-.42-.42-.754-.912-1.002-1.476s-.372-1.166-.372-1.806c0-.648.124-1.258.372-1.83a4.779 4.779 0 011.008-1.494c.424-.424.924-.76 1.5-1.008a4.592 4.592 0 011.836-.372c.8 0 1.518.17 2.154.51a5.2 5.2 0 011.674 1.446l-.732.684a4.402 4.402 0 00-1.338-1.254c-.508-.3-1.098-.45-1.77-.45-.52 0-1.004.102-1.452.306a3.798 3.798 0 00-1.956 2.022c-.192.456-.288.94-.288 1.452 0 .48.092.94.276 1.38s.444.832.78 1.176c.336.336.728.612 1.176.828.448.216.912.324 1.392.324.392 0 .78-.068 1.164-.204a3.44 3.44 0 001.038-.582c.308-.252.556-.55.744-.894.188-.344.282-.728.282-1.152h-2.688v-.936h3.768zM-1659.7 126.285a2.933 2.933 0 01-2.093-.858 3 3 0 01-.636-.942 2.892 2.892 0 01-.234-1.164 2.96 2.96 0 01.858-2.112c.268-.272.582-.486.942-.642.36-.156.748-.234 1.164-.234s.804.078 1.164.234a2.966 2.966 0 011.8 2.754 2.9 2.9 0 01-.234 1.164c-.156.36-.368.674-.636.942a2.928 2.928 0 01-2.094.858zm0-5.064a1.96 1.96 0 00-1.859 1.278 2.252 2.252 0 00-.144.81c0 .288.048.558.144.81.096.252.232.474.408.666.176.192.388.342.636.45.248.108.52.162.816.162s.568-.054.816-.162.46-.258.636-.45.312-.414.408-.666c.096-.252.144-.522.144-.81 0-.288-.048-.558-.144-.81a1.99 1.99 0 00-.408-.66 1.98 1.98 0 00-1.452-.618zM-1652.955 126.285a2.933 2.933 0 01-2.094-.858 3 3 0 01-.636-.942 2.892 2.892 0 01-.234-1.164 2.96 2.96 0 01.858-2.112c.268-.272.582-.486.942-.642.36-.156.748-.234 1.164-.234s.804.078 1.164.234a2.966 2.966 0 011.8 2.754 2.9 2.9 0 01-.234 1.164c-.156.36-.368.674-.636.942a2.928 2.928 0 01-2.094.858zm0-5.064a1.96 1.96 0 00-1.86 1.278 2.252 2.252 0 00-.144.81c0 .288.048.558.144.81.096.252.232.474.408.666.176.192.388.342.636.45.248.108.52.162.816.162s.568-.054.816-.162.46-.258.636-.45.312-.414.408-.666c.096-.252.144-.522.144-.81 0-.288-.048-.558-.144-.81a1.99 1.99 0 00-.408-.66 1.98 1.98 0 00-1.452-.618zM-1643.583 125.853c0 .224-.004.442-.013.654a4.39 4.39 0 01-.065.618c-.036.2-.092.396-.168.588s-.186.38-.33.564a2.438 2.438 0 01-.972.75 3.054 3.054 0 01-1.212.246c-.392 0-.756-.06-1.092-.18a2.527 2.527 0 01-.87-.516 2.47 2.47 0 01-.583-.816c-.144-.32-.22-.68-.228-1.08h.96c.009.528.18.944.516 1.248.336.304.765.456 1.285.456.367 0 .67-.064.905-.192.237-.128.422-.3.558-.516.137-.216.228-.466.276-.75a5.4 5.4 0 00.073-.906v-.672h-.024a2.39 2.39 0 01-.864.69 2.51 2.51 0 01-1.092.246 2.52 2.52 0 01-1.11-.24 2.624 2.624 0 01-.852-.648c-.237-.272-.416-.586-.54-.942s-.186-.73-.186-1.122.064-.77.192-1.134c.128-.364.31-.684.546-.96.235-.276.522-.496.857-.66a2.54 2.54 0 011.129-.246c.391 0 .751.084 1.08.252s.607.404.84.708h.024v-.804h.96v5.364zm-2.808-4.632c-.28 0-.533.056-.756.168-.225.112-.416.262-.577.45s-.283.404-.372.648a2.232 2.232 0 00-.132.762c0 .28.04.548.12.804.08.256.198.484.355.684.155.2.348.36.575.48.228.12.494.18.799.18.312 0 .584-.058.815-.174.232-.116.428-.272.588-.468.16-.196.28-.422.36-.678.08-.256.12-.528.12-.816 0-.28-.043-.544-.131-.792a1.998 1.998 0 00-.373-.648 1.734 1.734 0 00-.593-.438 1.898 1.898 0 00-.798-.162zM-1640.775 126.129h-.96v-9.9h.96v9.9zM-1637.601 123.97c.118.236.268.436.452.6a1.777 1.777 0 001.303.465c.248-.012.495-.078.738-.2.365-.181.623-.432.773-.751s.231-.671.247-1.054l.939.056a3.045 3.045 0 01-.442 1.526c-.275.444-.67.795-1.187 1.05-.38.19-.755.291-1.127.306a2.62 2.62 0 01-1.957-.743 3.319 3.319 0 01-.679-.936 3.817 3.817 0 01-.364-1.139 2.855 2.855 0 01.04-1.106c.086-.35.245-.672.479-.967.233-.294.546-.54.94-.735.41-.203.806-.303 1.19-.302.385.001.745.084 1.08.247s.637.395.9.692c.264.298.478.639.641 1.022l-3.966 1.969zm2.7-2.252a1.735 1.735 0 00-.43-.423c-.17-.116-.35-.204-.539-.261s-.385-.079-.588-.064a1.61 1.61 0 00-1.07.53 1.81 1.81 0 00-.325.518c-.08.191-.125.39-.139.598s.011.408.071.601l3.02-1.5z"/></g><g><path d="M-1181.781-78.204v2.688h3.012v.936h-3.012v4.488h-1.008v-9.048h4.115v.936h-3.107zM-1176.117-70.092h-.96v-9.9h.96v9.9zM-1169.181-70.092h-.96v-.78h-.024c-.496.624-1.144.935-1.944.935-.416 0-.79-.082-1.122-.245a2.689 2.689 0 01-.852-.654 2.831 2.831 0 01-.54-.942 3.361 3.361 0 01-.186-1.122c0-.4.061-.782.186-1.146.123-.364.302-.682.533-.955.233-.271.517-.487.853-.647.336-.16.716-.24 1.14-.24a2.417 2.417 0 011.933.96h.022v-.804h.96v5.64zm-2.808-4.909c-.28 0-.532.057-.756.169-.225.112-.416.262-.576.45s-.284.404-.372.648a2.232 2.232 0 00-.132.762c0 .28.04.548.12.804.08.256.197.484.353.684.157.2.348.36.577.48.227.12.494.18.798.18.312 0 .584-.058.816-.174a1.78 1.78 0 00.588-.468c.16-.196.28-.422.36-.678.08-.256.12-.528.12-.816 0-.28-.045-.544-.132-.792a1.989 1.989 0 00-.373-.648 1.739 1.739 0 00-.593-.438 1.897 1.897 0 00-.798-.163zM-1166.397-70.092h-.96v-4.752h-.588v-.888h.588v-2.028h.96v2.028h1.007v.888h-1.007v4.752zM-1159.846-73.752v.516c0 .176.012.352.036.528.024.176.064.346.12.51.056.164.136.318.24.462.2.28.47.494.81.642.34.148.678.222 1.014.222.328 0 .654-.07.978-.21.324-.14.59-.338.798-.594.12-.144.21-.3.27-.468.06-.169.104-.342.132-.522.028-.18.042-.362.042-.546v-5.928h1.008v5.664c0 .248-.008.482-.024.702-.017.22-.05.434-.102.642a2.422 2.422 0 01-.24.6c-.108.192-.25.38-.427.564-.311.336-.681.592-1.109.768s-.87.264-1.326.264c-.432 0-.855-.078-1.266-.234a2.996 2.996 0 01-1.074-.69 2.775 2.775 0 01-.475-.582 2.6 2.6 0 01-.263-.618c-.06-.216-.1-.442-.12-.678a8.96 8.96 0 01-.03-.738v-5.664h1.008v5.388zM-1151.578-70.092h-1.008v-9.048h1.008v9.048zM-1144.474-73.428v.887h-2.46v-.887h2.46zM-1139.853-79.14h1.704c.336 0 .659.014.971.042.312.028.613.082.9.161.288.08.57.193.847.337.275.144.545.328.81.552.52.448.9.964 1.14 1.548.239.584.36 1.216.36 1.896 0 .664-.121 1.28-.36 1.848a4.238 4.238 0 01-1.116 1.524c-.273.24-.544.434-.817.582-.271.148-.554.264-.846.348s-.595.14-.912.168c-.316.028-.65.042-1.002.042h-1.68v-9.048zm1.739 8.112c.272 0 .536-.012.792-.036s.502-.07.738-.138a3.206 3.206 0 001.326-.762 3.44 3.44 0 00.846-1.212c.189-.456.282-.936.282-1.44a3.84 3.84 0 00-.294-1.488 3.294 3.294 0 00-.881-1.224c-.416-.368-.855-.606-1.315-.714a6.535 6.535 0 00-1.494-.162h-.731v7.176h.73zM-1126.57-70.092h-.96v-.78h-.024c-.496.624-1.144.935-1.944.935-.416 0-.79-.082-1.122-.245a2.689 2.689 0 01-.852-.654 2.831 2.831 0 01-.54-.942 3.361 3.361 0 01-.186-1.122c0-.4.061-.782.186-1.146.123-.364.302-.682.534-.955.232-.271.516-.487.852-.647.336-.16.716-.24 1.14-.24.383 0 .744.084 1.08.252s.62.404.852.708h.024v-.804h.96v5.64zm-2.808-4.909c-.28 0-.532.057-.756.169-.224.112-.416.262-.576.45s-.284.404-.372.648a2.232 2.232 0 00-.132.762c0 .28.04.548.12.804.08.256.198.484.354.684.156.2.347.36.576.48.227.12.494.18.798.18.312 0 .584-.058.816-.174a1.78 1.78 0 00.588-.468c.16-.196.28-.422.36-.678.08-.256.12-.528.12-.816 0-.28-.044-.544-.132-.792a1.989 1.989 0 00-.372-.648 1.739 1.739 0 00-.594-.438 1.897 1.897 0 00-.798-.163zM-1123.882-75.12h.024c.168-.224.34-.408.515-.552.177-.144.421-.216.733-.216.16 0 .31.024.45.072.14.048.277.112.414.192l-.456.876-.264-.174a.568.568 0 00-.312-.078c-.264 0-.47.074-.618.222-.148.148-.258.33-.33.546a2.746 2.746 0 00-.132.684c-.016.24-.024.452-.024.636v2.82h-.96v-5.64h.96v.612zM-1119.862-73.644l2.052-2.088h1.284l-2.412 2.4 2.868 3.24h-1.272l-2.268-2.568-.252.252v2.316h-.96v-9.9h.96v6.348z"/></g><g><path d="M-1181.782 316.197v2.687h3.013v.937h-3.013v4.487h-1.008v-9.048h4.116v.937h-3.108zM-1176.118 324.308h-.96v-9.9h.96v9.9zM-1169.181 324.308h-.96v-.78h-.025c-.496.625-1.144.936-1.944.936-.416 0-.79-.082-1.122-.246s-.616-.382-.852-.654a2.846 2.846 0 01-.54-.941 3.39 3.39 0 01-.185-1.123c0-.4.061-.782.185-1.146.124-.363.302-.682.534-.954a2.54 2.54 0 011.992-.888c.384 0 .745.084 1.08.252s.62.404.852.708h.025v-.804h.96v5.64zm-2.81-4.908c-.28 0-.531.057-.755.168a1.832 1.832 0 00-.576.45c-.16.189-.284.404-.372.649s-.132.498-.132.761c0 .28.04.548.12.804.08.257.198.484.354.684.156.2.348.36.576.48.228.12.494.18.798.18.312 0 .583-.058.816-.173.232-.116.428-.273.588-.469.16-.195.28-.422.36-.678s.12-.528.12-.816c0-.28-.044-.544-.132-.792a2.024 2.024 0 00-.372-.648 1.741 1.741 0 00-.594-.438 1.903 1.903 0 00-.798-.162zM-1166.398 324.308h-.96v-4.752h-.588v-.888h.588v-2.028h.96v2.028h1.008v.888h-1.008v4.752zM-1153.93 317.24a3.952 3.952 0 00-1.254-.882 3.659 3.659 0 00-1.506-.317c-.504 0-.978.101-1.422.305s-.83.479-1.158.823-.588.742-.78 1.194c-.192.451-.289.926-.289 1.422s.097.97.288 1.422c.193.452.454.85.786 1.193.332.345.722.618 1.17.822s.924.307 1.429.307c.512 0 1.006-.11 1.481-.33.476-.22.895-.51 1.254-.87v1.248c-.391.28-.82.498-1.284.653a4.58 4.58 0 01-3.233-.132 4.767 4.767 0 01-2.52-2.472 4.378 4.378 0 01-.379-1.805c0-.649.124-1.259.372-1.83a4.782 4.782 0 012.515-2.515 4.546 4.546 0 011.83-.372c1.008 0 1.907.297 2.7.889v1.248zM-1149.766 324.464a2.937 2.937 0 01-2.094-.858 2.986 2.986 0 01-.636-.941c-.156-.36-.234-.748-.234-1.165s.076-.803.228-1.164a2.98 2.98 0 011.571-1.59c.36-.156.748-.234 1.164-.234s.804.078 1.165.235.673.37.942.641a2.974 2.974 0 01.857 2.112c0 .417-.078.804-.233 1.165-.156.359-.368.673-.637.941a2.927 2.927 0 01-2.093.858zm0-5.064a1.963 1.963 0 00-1.86 1.278 2.244 2.244 0 00-.144.81c0 .288.048.558.144.81.096.252.232.474.407.666s.39.342.637.45c.247.108.52.163.816.163s.568-.055.816-.162c.248-.109.46-.258.636-.45s.312-.415.408-.667.143-.522.143-.81c0-.287-.047-.558-.143-.81s-.233-.471-.408-.66a1.973 1.973 0 00-1.452-.618zM-1144.546 324.308h-.96v-9.9h.96v9.9zM-1140.299 324.464a2.937 2.937 0 01-2.093-.858 2.986 2.986 0 01-.636-.941c-.156-.36-.235-.748-.235-1.165s.077-.803.229-1.164a2.98 2.98 0 011.571-1.59c.36-.156.748-.234 1.164-.234s.804.078 1.164.235.674.37.943.641a2.974 2.974 0 01.857 2.112c0 .417-.078.804-.233 1.165-.156.359-.368.673-.637.941a2.927 2.927 0 01-2.094.858zm0-5.064a1.963 1.963 0 00-1.859 1.278 2.244 2.244 0 00-.145.81c0 .288.048.558.145.81.096.252.231.474.407.666s.389.342.637.45c.247.108.52.163.815.163s.569-.055.817-.162c.248-.109.46-.258.635-.45s.313-.415.409-.667.143-.522.143-.81c0-.287-.048-.558-.143-.81s-.233-.471-.409-.66a1.973 1.973 0 00-1.452-.618zM-1135.102 319.28h.024c.168-.224.34-.407.516-.552.175-.144.42-.216.732-.216.16 0 .31.025.45.073.14.047.278.112.413.191l-.456.877c-.096-.065-.183-.122-.264-.175a.566.566 0 00-.311-.078c-.265 0-.47.074-.618.223-.149.147-.259.33-.33.546a2.698 2.698 0 00-.132.683c-.017.24-.024.452-.024.637v2.82h-.96v-5.64h.96v.612zM-1129.715 319.976a1.068 1.068 0 00-.3-.401.7.7 0 00-.467-.175.753.753 0 00-.474.175.544.544 0 00-.223.449c0 .129.039.238.115.33.076.093.174.177.294.252.12.076.257.144.414.204.156.06.318.126.486.198s.33.153.485.24c.157.088.294.195.414.318.12.125.218.272.294.444s.115.378.115.618c0 .264-.05.51-.15.739-.1.227-.238.422-.415.582a1.958 1.958 0 01-1.344.516c-.48 0-.893-.127-1.242-.379a2.082 2.082 0 01-.75-1.05l.853-.36c.12.264.261.48.425.649s.407.252.727.252c.256 0 .472-.08.648-.24s.263-.369.263-.625c0-.208-.061-.376-.185-.504s-.282-.24-.474-.335c-.192-.097-.396-.187-.612-.27s-.42-.188-.612-.312a1.643 1.643 0 01-.474-.462c-.124-.185-.187-.424-.187-.721 0-.24.044-.457.133-.653.088-.197.21-.365.365-.504.157-.14.334-.248.535-.324s.416-.115.648-.115c.327 0 .628.1.9.3.272.2.472.448.6.744l-.805.42z"/></g><g><path d="M-1181.781 118.017v2.688h3.012v.936h-3.012v4.488h-1.008v-9.048h4.115v.936h-3.107zM-1176.117 126.129h-.96v-9.9h.96v9.9zM-1169.181 126.129h-.96v-.78h-.024c-.496.624-1.144.936-1.944.936-.416 0-.79-.082-1.122-.246a2.689 2.689 0 01-.852-.654 2.831 2.831 0 01-.54-.942 3.361 3.361 0 01-.186-1.122c0-.4.061-.782.186-1.146.123-.364.302-.682.533-.954.233-.272.517-.488.853-.648.336-.16.716-.24 1.14-.24a2.417 2.417 0 011.933.96h.022v-.804h.96v5.64zm-2.808-4.908c-.28 0-.532.056-.756.168-.225.112-.416.262-.576.45s-.284.404-.372.648a2.232 2.232 0 00-.132.762c0 .28.04.548.12.804.08.256.197.484.353.684.157.2.348.36.577.48.227.12.494.18.798.18.312 0 .584-.058.816-.174a1.78 1.78 0 00.588-.468c.16-.196.28-.422.36-.678.08-.256.12-.528.12-.816 0-.28-.045-.544-.132-.792a1.989 1.989 0 00-.373-.648 1.739 1.739 0 00-.593-.438 1.897 1.897 0 00-.798-.162zM-1166.397 126.129h-.96v-4.752h-.588v-.888h.588v-2.028h.96v2.028h1.007v.888h-1.007v4.752zM-1159.846 122.469v.516c0 .176.012.352.036.528.024.176.064.346.12.51.056.164.136.318.24.462.2.28.47.494.81.642.34.148.678.222 1.014.222.328 0 .654-.07.978-.21.324-.14.59-.338.798-.594.12-.144.21-.3.27-.468.06-.168.104-.342.132-.522.028-.18.042-.362.042-.546v-5.928h1.008v5.664c0 .248-.008.482-.024.702-.017.22-.05.434-.102.642a2.422 2.422 0 01-.24.6c-.108.192-.25.38-.427.564-.311.336-.681.592-1.109.768s-.87.264-1.326.264c-.432 0-.855-.078-1.266-.234a2.996 2.996 0 01-1.074-.69 2.775 2.775 0 01-.475-.582 2.6 2.6 0 01-.263-.618c-.06-.216-.1-.442-.12-.678a8.96 8.96 0 01-.03-.738v-5.664h1.008v5.388zM-1151.578 126.129h-1.008v-9.048h1.008v9.048zM-1144.474 122.793v.888h-2.46v-.888h2.46zM-1138.846 125.193h2.496v.936h-3.503v-9.048h1.007v8.112zM-1134.694 117.68c.184 0 .345.07.48.205a.66.66 0 01.204.48.653.653 0 01-.204.486.667.667 0 01-.48.198.666.666 0 01-.48-.198.653.653 0 01-.204-.486.66.66 0 01.204-.48.657.657 0 01.48-.204zm.48 8.449h-.96v-5.64h.96v5.64zM-1127.122 125.853c0 .224-.004.442-.012.654s-.03.418-.066.618c-.035.2-.092.396-.168.588s-.185.38-.33.564c-.264.336-.588.586-.972.75s-.788.246-1.212.246c-.391 0-.756-.06-1.091-.18a2.527 2.527 0 01-.87-.516 2.463 2.463 0 01-.583-.816c-.144-.32-.22-.68-.228-1.08h.96c.009.528.18.944.516 1.248.336.304.764.456 1.285.456.367 0 .67-.064.905-.192.236-.128.422-.3.559-.516.135-.216.227-.466.275-.75.049-.284.072-.586.072-.906v-.672h-.023c-.233.296-.52.526-.864.69a2.51 2.51 0 01-1.092.246c-.408 0-.779-.08-1.11-.24s-.617-.376-.852-.648c-.237-.272-.416-.586-.54-.942s-.187-.73-.187-1.122.065-.77.193-1.134c.128-.364.31-.684.546-.96a2.63 2.63 0 01.857-.66 2.543 2.543 0 011.129-.246c.391 0 .75.084 1.079.252s.608.404.84.708h.024v-.804h.96v5.364zm-2.808-4.632c-.28 0-.532.056-.755.168-.225.112-.417.262-.577.45s-.284.404-.372.648a2.232 2.232 0 00-.132.762c0 .28.04.548.12.804.08.256.198.484.354.684.156.2.349.36.576.48s.494.18.798.18c.313 0 .584-.058.816-.174a1.78 1.78 0 00.588-.468c.16-.196.28-.422.36-.678.08-.256.12-.528.12-.816 0-.28-.044-.544-.132-.792a1.989 1.989 0 00-.372-.648c-.16-.184-.357-.33-.594-.438s-.502-.162-.798-.162zM-1124.29 116.229v4.92l.023.024c.2-.272.431-.48.69-.624s.566-.216.919-.216c.391 0 .712.066.96.198s.444.31.588.534.242.484.294.78c.051.296.078.608.078.936v3.348h-.96v-3.18c0-.224-.01-.442-.03-.654a1.606 1.606 0 00-.144-.552.896.896 0 00-.355-.378c-.16-.096-.38-.144-.66-.144-.328 0-.586.07-.773.21-.189.14-.328.318-.42.534-.093.216-.15.456-.174.72a8.34 8.34 0 00-.036.768v2.676h-.96v-9.9h.96zM-1117.906 126.129h-.96v-4.752h-.588v-.888h.588v-2.028h.96v2.028h1.008v.888h-1.008v4.752z"/></g><g><path fill="#F39C12" d="M-423.136 90.522V67.099l-48.879 31.22 10.83 16.815 18.05-11.675v116.739h20z"/><path fill="#34A853" d="M-325.502 60.115L-336.6 36.317l-42.743 91.94-42.873 91.94h171.36l-74.648-160.082zm-35.714 76.595l24.683-52.927 54.405 116.672h-108.813l29.725-63.745z"/><path fill="#E74C3C" d="M-153.773 202.455v17.743h-95.651l68.976-88.877s.022-.028.068-.081a27.491 27.491 0 006.385-17.657c0-15.245-12.359-27.603-27.604-27.603s-27.603 12.359-27.603 27.603h-20.222c0-26.413 21.412-47.825 47.825-47.825s47.826 21.412 47.826 47.825a47.634 47.634 0 01-11.24 30.805c-9.38 12.107-42.171 54.451-42.171 54.451h53.411v3.616z"/><path fill="#3498DB" d="M-37.17 156.337c-4.505-19.053-18.352-33.07-44.574-35.899 15.789-18.976 45.26-54.403 45.26-54.403h-98.352v20h57.303l-46.15 55.536c8.77-3.992 26-4.352 31.31-4.226 22.386.527 36.254 15.084 35.643 33.225-.614 18.242-17.481 33.049-39.045 33.049-16.525 0-30.652-8.69-36.352-20.963l-18.29 9.126c8.89 19.542 30.283 33.314 55.26 33.314 32.95 0 59.662-23.968 59.662-53.534 0-5.329-.542-10.436-1.675-15.225z"/></g><g><path d="M-455.191 239.61c-.414-.701-.887-1.245-1.418-1.633-.532-.387-1.229-.58-2.092-.58-.45 0-.878.076-1.283.23-.405.153-.765.369-1.08.647a3.03 3.03 0 00-.743.999c-.18.388-.27.815-.27 1.283 0 .432.103.815.311 1.148.206.333.463.625.77.877.306.252.647.468 1.025.647l1.08.514 1.35.594c.666.288 1.292.598 1.877.931s1.102.72 1.553 1.161c.449.442.804.955 1.066 1.54.26.585.392 1.282.392 2.091 0 .9-.167 1.734-.5 2.498a6.033 6.033 0 01-1.377 1.985 6.633 6.633 0 01-2.038 1.323 6.367 6.367 0 01-2.485.485c-.81 0-1.565-.126-2.267-.378-.703-.252-1.329-.607-1.877-1.066s-1.013-1.013-1.391-1.66a7.071 7.071 0 01-.81-2.16l2.214-.622a4.57 4.57 0 00.46 1.472c.233.46.526.86.877 1.201.35.343.76.613 1.229.81.467.2.971.298 1.511.298s1.062-.099 1.566-.297.949-.473 1.337-.824c.386-.35.697-.769.931-1.255.234-.487.35-1.017.35-1.593 0-.595-.106-1.098-.322-1.513a3.718 3.718 0 00-.85-1.08c-.352-.305-.753-.571-1.203-.796s-.91-.445-1.377-.662l-1.242-.54c-.594-.27-1.16-.557-1.7-.863s-1.013-.657-1.418-1.054a4.397 4.397 0 01-.958-1.39c-.235-.53-.352-1.164-.352-1.903 0-.792.153-1.507.459-2.146s.725-1.184 1.256-1.634a5.772 5.772 0 011.822-1.04 6.424 6.424 0 012.16-.364c1.134 0 2.16.274 3.078.823.918.55 1.647 1.328 2.187 2.336l-1.808 1.16zM-376.433 256h-2.268v-18.252h-4.914v-2.106h12.15v2.106h-4.968V256zM-299.43 247.764v1.161c0 .397.028.793.082 1.189.054.395.144.778.27 1.147s.306.715.54 1.04c.45.63 1.057 1.112 1.822 1.444.765.334 1.526.5 2.282.5a5.5 5.5 0 002.2-.473 4.625 4.625 0 001.796-1.337c.27-.323.472-.675.607-1.053s.234-.77.297-1.173c.063-.406.095-.815.095-1.229v-13.338h2.268v12.743c0 .559-.018 1.085-.054 1.58s-.113.977-.23 1.445-.297.918-.54 1.35a6.367 6.367 0 01-.958 1.269 6.997 6.997 0 01-2.498 1.727 7.78 7.78 0 01-2.983.594c-.972 0-1.921-.175-2.849-.526a6.754 6.754 0 01-2.416-1.552 6.27 6.27 0 01-1.066-1.31 5.715 5.715 0 01-.594-1.39c-.136-.487-.226-.994-.27-1.526s-.068-1.085-.068-1.66v-12.744h2.268v12.122zM-215.648 235.642h3.834c.756 0 1.485.031 2.187.094a11.39 11.39 0 012.025.365c.648.18 1.283.432 1.904.756.62.324 1.228.738 1.822 1.242 1.17 1.008 2.025 2.17 2.565 3.483s.81 2.736.81 4.265c0 1.494-.27 2.881-.81 4.158-.54 1.279-1.377 2.421-2.511 3.43-.612.54-1.225.977-1.836 1.309a9.363 9.363 0 01-1.903.783c-.657.19-1.342.315-2.052.378a25.41 25.41 0 01-2.255.094h-3.78v-20.357zm3.915 18.251a19.2 19.2 0 001.782-.08 9.145 9.145 0 001.66-.31c.531-.154 1.044-.37 1.54-.649s.976-.635 1.444-1.066a7.76 7.76 0 001.904-2.728 8.432 8.432 0 00.634-3.24c0-1.169-.221-2.285-.661-3.347a7.395 7.395 0 00-1.985-2.754c-.936-.828-1.922-1.364-2.957-1.607a14.735 14.735 0 00-3.361-.364h-1.647v16.145h1.647zM-127.52 256h-2.268v-20.358h2.268V256zM-46.304 235.29c1.458 0 2.83.275 4.118.824a10.646 10.646 0 013.375 2.268 10.874 10.874 0 012.28 3.362c.559 1.278.838 2.645.838 4.103s-.28 2.826-.837 4.105a10.53 10.53 0 01-2.281 3.334 10.853 10.853 0 01-3.375 2.24c-1.287.55-2.66.824-4.118.824s-2.83-.274-4.118-.823a10.83 10.83 0 01-3.375-2.241 10.496 10.496 0 01-2.28-3.334c-.56-1.279-.838-2.647-.838-4.105s.278-2.825.837-4.103c.558-1.278 1.319-2.399 2.281-3.362s2.088-1.718 3.375-2.268a10.387 10.387 0 014.117-.823zm0 2.107c-1.17 0-2.264.22-3.28.661a8.224 8.224 0 00-2.646 1.81A8.533 8.533 0 00-54 242.553a8.325 8.325 0 00-.648 3.268c0 1.151.216 2.236.648 3.253a8.464 8.464 0 004.442 4.496c1.016.45 2.1.675 3.252.675s2.237-.225 3.254-.675a8.578 8.578 0 002.66-1.823 8.464 8.464 0 001.782-2.673 8.24 8.24 0 00.648-3.253 8.343 8.343 0 00-.648-3.268 8.545 8.545 0 00-1.769-2.685 8.236 8.236 0 00-2.645-1.81 8.17 8.17 0 00-3.281-.661z"/></g><g><path fill="#34A853" d="M99.716 146.39l27.377-48.73 27.072 48.188 31.824-19.13L128 23.498 69.291 128l-.412.734 30.649 17.992.188-.336z"/><path fill="#F39C12" d="M245.372 232.422l-59.384-105.704-31.823 19.13 27.682 49.273h-.05l27.709 16.275 35.866 21.026z"/><path fill="#EC1C24" d="M72.34 195.121l27.188-48.395-30.649-17.992-58.296 103.768h.04l61.725-37.354-61.726 37.354h.02l61.776-37.381h-.078z"/><path fill="#3498DB" d="M245.407 232.483l-35.901-21.087-27.621-16.191 27.62 16.191-27.709-16.275H72.418l-61.776 37.38h234.775l-.01-.018z"/><path fill="#D0D2D3" d="M245.407 232.483l-.035-.061-35.866-21.026 35.9 21.087z"/></g><g><path fill="#F39C12" d="M-423.136 369.704v-23.423l-48.879 31.22 10.83 16.815 18.05-11.675V499.38h20z"/><path fill="#34A853" d="M-325.502 339.297L-336.6 315.5l-42.743 91.94-42.873 91.94h171.36l-74.648-160.082zm-35.714 76.595l24.683-52.927 54.405 116.672h-108.813l29.725-63.745z"/><path fill="#E74C3C" d="M-153.773 481.637v17.743h-95.651l68.976-88.877s.022-.028.068-.08a27.491 27.491 0 006.385-17.657c0-15.245-12.359-27.604-27.604-27.604s-27.603 12.359-27.603 27.604h-20.222c0-26.414 21.412-47.826 47.825-47.826s47.826 21.412 47.826 47.826a47.634 47.634 0 01-11.24 30.804c-9.38 12.108-42.171 54.451-42.171 54.451h53.411v3.616z"/><path fill="#3498DB" d="M-37.17 435.519c-4.505-19.053-18.352-33.07-44.574-35.899 15.789-18.976 45.26-54.403 45.26-54.403h-98.352v20h57.303l-46.15 55.536c8.77-3.992 26-4.351 31.31-4.226 22.386.527 36.254 15.084 35.643 33.225-.614 18.242-17.481 33.049-39.045 33.049-16.525 0-30.652-8.69-36.352-20.963l-18.29 9.126c8.89 19.542 30.283 33.314 55.26 33.314 32.95 0 59.662-23.968 59.662-53.534 0-5.328-.542-10.436-1.675-15.225z"/></g><g><path fill="#5F5F5F" d="M46.142 369.704v-23.423l-48.879 31.22 10.83 16.815 18.05-11.675V499.38h20zM143.776 339.297L132.679 315.5l-42.743 91.94-42.873 91.94h171.36l-74.647-160.082zm-35.714 76.595l24.683-52.927 54.405 116.672H78.337l29.725-63.745zM315.505 481.637v17.743h-95.651l68.976-88.877s.022-.028.068-.08a27.491 27.491 0 006.385-17.657c0-15.245-12.358-27.604-27.603-27.604-15.245 0-27.604 12.359-27.604 27.604h-20.222c0-26.414 21.412-47.826 47.826-47.826s47.825 21.412 47.825 47.826a47.634 47.634 0 01-11.24 30.804c-9.38 12.108-42.171 54.451-42.171 54.451h53.411v3.616zM432.108 435.519c-4.505-19.053-18.352-33.07-44.574-35.899 15.789-18.976 45.26-54.403 45.26-54.403h-98.352v20h57.303l-46.15 55.536c8.77-3.992 26-4.351 31.31-4.226 22.386.527 36.254 15.084 35.643 33.225-.614 18.242-17.48 33.049-39.045 33.049-16.525 0-30.652-8.69-36.352-20.963l-18.29 9.126c8.89 19.542 30.283 33.314 55.26 33.314 32.95 0 59.662-23.968 59.662-53.534 0-5.328-.542-10.436-1.675-15.225z"/></g><g><path fill="#231F20" d="M46.142 597.136v-23.423l-48.879 31.22 10.83 16.815 18.05-11.675v116.739h20zM143.776 566.729l-11.097-23.798-42.743 91.94-42.873 91.94h171.36L143.776 566.73zm-35.714 76.595l24.683-52.927 54.405 116.672H78.337l29.725-63.745zM315.505 709.069v17.743h-95.651l68.976-88.877s.022-.028.068-.081a27.491 27.491 0 006.385-17.657c0-15.245-12.358-27.603-27.603-27.603-15.245 0-27.604 12.358-27.604 27.603h-20.222c0-26.413 21.412-47.825 47.826-47.825s47.825 21.412 47.825 47.825a47.635 47.635 0 01-11.24 30.805c-9.38 12.107-42.171 54.451-42.171 54.451h53.411v3.616zM432.108 662.95c-4.505-19.052-18.352-33.07-44.574-35.898 15.789-18.976 45.26-54.403 45.26-54.403h-98.352v20h57.303l-46.15 55.535c8.77-3.991 26-4.35 31.31-4.226 22.386.528 36.254 15.085 35.643 33.226-.614 18.242-17.48 33.048-39.045 33.048-16.525 0-30.652-8.689-36.352-20.963l-18.29 9.126c8.89 19.543 30.283 33.314 55.26 33.314 32.95 0 59.662-23.968 59.662-53.534 0-5.328-.542-10.435-1.675-15.225z"/></g><g><path fill="#FFF" d="M-423.136 597.136v-23.423l-48.879 31.22 10.83 16.815 18.05-11.675v116.739h20zM-325.502 566.729L-336.6 542.93l-42.743 91.94-42.873 91.94h171.36l-74.648-160.082zm-35.714 76.595l24.683-52.927 54.405 116.672h-108.813l29.725-63.745zM-153.773 709.069v17.743h-95.651l68.976-88.877s.022-.028.068-.081a27.491 27.491 0 006.385-17.657c0-15.245-12.359-27.603-27.603-27.603-15.245 0-27.604 12.358-27.604 27.603h-20.222c0-26.413 21.412-47.825 47.826-47.825s47.825 21.412 47.825 47.825a47.635 47.635 0 01-11.24 30.805c-9.38 12.107-42.171 54.451-42.171 54.451h53.411v3.616zM-37.17 662.95c-4.505-19.052-18.352-33.07-44.574-35.898 15.789-18.976 45.26-54.403 45.26-54.403h-98.352v20h57.303l-46.15 55.535c8.77-3.991 26-4.35 31.31-4.226 22.386.528 36.254 15.085 35.643 33.226-.614 18.242-17.481 33.048-39.045 33.048-16.525 0-30.652-8.689-36.352-20.963l-18.29 9.126c8.89 19.543 30.283 33.314 55.26 33.314 32.95 0 59.662-23.968 59.662-53.534 0-5.328-.542-10.435-1.675-15.225z"/></g></svg>